# AST/ASF file generated using VICON BodyLanguage
# -----------------------------------------------
:version 1.10
:name VICON
:units
  mass 1.0
  length 0.45
  angle deg
:documentation
   .ast/.asf automatically generated from VICON data using
   VICON BodyBuilder and BodyLanguage model FoxedUp or BRILLIANT.MOD
:root
   order TX TY TZ RX RY RZ
   axis XYZ
   position 0 0 0  
   orientation 0 -0 0 
:bonedata
  begin
     id 1 
     name lhipjoint
     direction 0.500677 -0.737119 0.453848 
     length 2.34727 
     axis 0 -0 0  XYZ
  end
  begin
     id 2 
     name lfemur
     direction 0.34202 -0.939693 0  
     length 7.53653  
     axis 0 -0 20  XYZ
    dof rx ry rz
    limits (-160.0 20.0)
           (-70.0 70.0)
           (-60.0 70.0)
  end
  begin
     id 3 
     name ltibia
     direction 0.34202 -0.939693 0   
     length 6.85572   
     axis 0 -0 20   XYZ
    dof rx
    limits (-10.0 170.0)
  end
  begin
     id 4 
     name lfoot
     direction 0.155313 -0.426718 0.890949   
     length 2.18324   
     axis -90 -1.13533e-015 20   XYZ
    dof rx rz
    limits (-45.0 90.0)
           (-70.0 20.0)
  end
  begin
     id 5 
     name ltoes
     direction 1.53474e-011 -4.21647e-011 1   
     length 1.06748   
     axis -90 -1.13533e-015 20   XYZ
    dof rx
    limits (-90.0 20.0)
  end
  begin
     id 6 
     name rhipjoint
     direction -0.632471 -0.659587 0.406111   
     length 2.62319  
     axis 0 -0 0  XYZ 
  end
  begin
     id 7 
     name rfemur
     direction -0.34202 -0.939693 0   
     length 7.21735   
     axis 0 -0 -20   XYZ
    dof rx ry rz
    limits (-160.0 20.0)
           (-70.0 70.0)
           (-70.0 60.0)
  end
  begin
     id 8 
     name rtibia
     direction -0.34202 -0.939693 0   
     length 7.02558   
     axis 0 -0 -20   XYZ
    dof rx
    limits (-10.0 170.0)
 end
 begin
     id 9 
     name rfoot
     direction -0.16057 -0.441164 0.882945   
     length 2.10014  
     axis -90 1.13533e-015 -20   XYZ
    dof rx rz
    limits (-45.0 90.0)
           (-20.0 70.0)
  end
  begin
     id 10 
     name rtoes
     direction -1.53553e-011 -4.2192e-011 1   
     length 1.02554   
     axis -90 1.13533e-015 -20   XYZ
    dof rx
    limits (-90.0 20.0)
  end
  begin
     id 11 
     name lowerback
     direction 0.0401429 0.998861 -0.0258085   
     length 1.80848   
     axis 0 -0 0   XYZ
    dof rx ry rz
    limits (-20.0 45.0)
           (-30.0 30.0)
           (-30.0 30.0)
  end
  begin
     id 12 
     name upperback
     direction -0.0130978 0.999914 -0.000352645   
     length 1.8116   
     axis 0 -0 0   XYZ
    dof rx ry rz
    limits (-20.0 45.0)
           (-30.0 30.0)
           (-30.0 30.0)
  end
  begin
     id 13 
     name thorax
     direction -0.0300198 0.999453 0.0138573   
     length 1.81778   
     axis 0 -0 0   XYZ
    dof rx ry rz
    limits (-20.0 45.0)
           (-30.0 30.0)
           (-30.0 30.0)
  end
  begin
     id 14 
     name lowerneck
     direction -0.0401726 0.999191 -0.00173647   
     length 2.10594   
     axis 0 -0 0   XYZ
    dof rx ry rz
    limits (-20.0 45.0)
           (-30.0 30.0)
           (-30.0 30.0)
  end
  begin
     id 15 
     name upperneck
     direction 0.0119835 0.998501 0.0534085   
     length 2.07325   
     axis 0 -0 0   XYZ
    dof rx ry rz
    limits (-20.0 45.0)
           (-30.0 30.0)
           (-30.0 30.0)
  end
  begin
     id 16
     name head
     direction 0.00628309 0.999826 0.0175921  
     length 2.15096  
     axis 0 -0 0   XYZ
    dof rx ry rz
    limits (-20.0 45.0)
           (-30.0 30.0)
           (-30.0 30.0)
  end
  begin
     id 17 
     name lclavicle
     direction 0.895501 0.429681 -0.115981  
     length 4.18092  
     axis 0 -0 0   XYZ
    dof ry rz
    limits (-20.0 10.0)
           (0.0 20.0)
  end
  begin
     id 18 
     name lhumerus
     direction 1 -4.48961e-011 -3.38433e-028   
     length 5.77237   
     axis 180 -30 -90   XYZ
    dof rx ry rz
    limits (-60.0 90.0)
           (-90.0 90.0)
           (-90.0 90.0)
  end
  begin
     id 19
     name lradius
     direction 1 -4.4901e-011 1.11983e-026   
     length 2.91878   
     axis 180 -30 -90   XYZ
    dof rx
    limits (-10.0 170.0)
  end
  begin
     id 20
     name lwrist
     direction 1 -4.48934e-011 1.88176e-026   
     length 1.45939   
     axis -1.23311e-014 90 90   XYZ
    dof ry
    limits (-180.0 0.0)
 end
  begin
     id 21 
     name lhand
     direction 1 -4.4895e-011 3.76352e-026   
     length 1.06566   
     axis -2.40147e-014 90 90   XYZ
    dof rx rz
    limits (-90.0 90.0)
           (-45.0 45.0)
  end
  begin
     id 22 
     name lfingers
     direction 1 -4.49005e-011 7.52705e-026   
     length 0.859162   
     axis -4.80295e-014 90 90   XYZ
    dof rx
    limits (0.0 90.0)
  end
  begin
     id 23
     name lthumb
     direction 0.707107 -6.34885e-011 0.707107   
     length 1.23359   
     axis -90 45 -9.86935e-015   XYZ
    dof rx rz
    limits (-45.0 45.0)
           (-45.0 45.0)
  end
  begin
     id 24 
     name rclavicle
     direction -0.91006 0.40451 -0.0903492   
     length 4.23293  
     axis 0 -0 0   XYZ 
    dof ry rz
    limits (-10.0 20.0)
           (-20.0 0.0)
  end
  begin
     id 25 
     name rhumerus
     direction -1 -4.4897e-011 1.7415e-027  
     length 5.49854   
     axis 180 30 90   XYZ
    dof rx ry rz
    limits (-90.0 60.0)
           (-90.0 90.0)
           (-90.0 90.0)
  end
  begin
     id 26 
     name rradius
     direction -1 -4.48963e-011 1.21259e-026   
     length 3.1186   
     axis 180 30 90   XYZ
    dof rx
    limits (-10.0 170.0)
  end
  begin
     id 27 
     name rwrist
     direction -1 -4.48967e-011 1.88176e-026   
     length 1.5593   
     axis -1.23311e-014 -90 -90   XYZ
    dof ry
    limits (-180.0 0.0)
  end
  begin
     id 28
     name rhand
     direction -1 -4.4895e-011 3.76352e-026   
     length 0.71207   
     axis -2.40147e-014 -90 -90   XYZ
    dof rx rz
    limits (-90.0 90.0)
           (-45.0 45.0)
  end
  begin
     id 29
     name rfingers
     direction -1 -4.49005e-011 7.52705e-026   
     length 0.574089   
     axis -4.80295e-014 -90 -90   XYZ
    dof rx
    limits (0.0 90.0)
  end
  begin
     id 30
     name rthumb
     direction -0.707107 -6.34982e-011 0.707107   
     length 0.824281   
     axis -90 -45 9.86935e-015   XYZ
    dof rx rz
    limits (-45.0 45.0)
           (-45.0 45.0)
  end
:hierarchy
  begin
    root lhipjoint rhipjoint lowerback
    lhipjoint lfemur
    lfemur ltibia
    ltibia lfoot
    lfoot ltoes
    rhipjoint rfemur
    rfemur rtibia
    rtibia rfoot
    rfoot rtoes
    lowerback upperback
    upperback thorax
    thorax lowerneck lclavicle rclavicle
    lowerneck upperneck
    upperneck head
    lclavicle lhumerus
    lhumerus lradius
    lradius lwrist
    lwrist lhand lthumb
    lhand lfingers
    rclavicle rhumerus
    rhumerus rradius
    rradius rwrist
    rwrist rhand rthumb
    rhand rfingers
  end

#!OML:ASF C:\ViconDB\ViconDB\414\Spring2016\042216\male.ASF
:FULLY-SPECIFIED
:DEGREES
327
root 9.87374 17.456 10.4016 -179.18 85.9991 -180.984
lowerback -1.2326 -2.9568 2.22115
upperback 0.326589 -3.96927 -0.968244
thorax 0.805221 -1.97079 -2.30237
lowerneck -3.47415 3.0107 -4.17956
upperneck -2.79098 4.22235 2.76271
head -0.434547 2.16242 1.58101
rclavicle 2.28789e-014 6.75868e-015
rhumerus -36.1397 -16.4511 -83.8058
rradius 26.044
rwrist 32.5025
rhand 12.525 -19.662
rfingers 7.12502
rthumb 37.5171 -45.591
lclavicle 2.28789e-014 6.75868e-015
lhumerus -25.5044 7.20365 87.2233
lradius 39.4019
lwrist -7.5307
lhand -8.2815 12.2268
lfingers 7.12502
lthumb 17.638 41.4468
rfemur -30.4449 0.405234 19.2445
rtibia 18.9253
rfoot -13.5519 -7.52263
rtoes -18.6261
lfemur 12.4751 -3.07655 -22.8999
ltibia 2.22639e-014
lfoot -18.9626 10.1225
ltoes -13.3415
328
root 10.0664 17.4325 10.4139 -178.8 85.8716 -180.723
lowerback -1.45177 -3.00015 2.07205
upperback 0.372913 -4.02987 -0.885271
thorax 0.988202 -1.99903 -2.15027
lowerneck -3.50597 2.97392 -4.33338
upperneck -2.88357 4.18459 2.90063
head -0.463327 2.14633 1.65191
rclavicle -3.24019e-014 9.93923e-016
rhumerus -36.1607 -16.858 -83.5275
rradius 25.8431
rwrist 32.9028
rhand 12.413 -19.8009
rfingers 7.12502
rthumb 37.4113 -45.7579
lclavicle -3.24019e-014 9.93923e-016
lhumerus -25.0781 7.00218 87.3843
lradius 39.5538
lwrist -7.41008
lhand -7.96209 12.3298
lfingers 7.12502
lthumb 17.9453 41.5219
rfemur -31.0918 0.0677533 19.5637
rtibia 18.7967
rfoot -14.4066 -6.76241
rtoes -18.8832
lfemur 13.0704 -3.20424 -22.8188
ltibia -1.11319e-014
lfoot -19.3195 10.2663
ltoes -14.3898
329
root 10.2617 17.4056 10.427 -177.23 85.5037 -179.176
lowerback -1.56197 -3.15286 2.02177
upperback 0.493848 -4.23656 -0.783988
thorax 1.17451 -2.09931 -2.03372
lowerneck -3.83282 2.9686 -4.29673
upperneck -2.82602 4.19073 2.89403
head -0.389783 2.15195 1.64993
rclavicle 3.54147e-014 1.59028e-015
rhumerus -35.9716 -16.9792 -83.4794
rradius 25.6194
rwrist 32.9406
rhand 12.3917 -19.7659
rfingers 7.12502
rthumb 37.3911 -45.7283
lclavicle 3.54147e-014 1.59028e-015
lhumerus -24.6218 6.85426 87.4711
lradius 39.6428
lwrist -7.2707
lhand -8.14904 12.2922
lfingers 7.12502
lthumb 17.7654 41.5007
rfemur -31.2828 -0.474804 20.017
rtibia 18.5971
rfoot -15.0982 -6.38742
rtoes -18.7973
lfemur 13.753 -3.56567 -22.6244
ltibia 1.59028e-014
lfoot -19.7159 10.4777
ltoes -15.5415
330
root 10.4574 17.3802 10.435 -176.487 85.4042 -178.372
lowerback -1.46073 -3.19224 2.00543
upperback 0.48361 -4.28718 -0.75165
thorax 1.1085 -2.12583 -1.98571
lowerneck -3.75232 2.97081 -4.09147
upperneck -2.85154 4.18259 2.83589
head -0.404963 2.14541 1.59351
rclavicle 4.87085e-014 5.76476e-015
rhumerus -36.1436 -17.6617 -83.1149
rradius 25.4449
rwrist 33.7019
rhand 12.2447 -19.7596
rfingers 7.12502
rthumb 37.2521 -45.7585
lclavicle 4.87085e-014 5.76476e-015
lhumerus -24.4445 6.9947 87.4516
lradius 39.6311
lwrist -7.64872
lhand -8.03163 12.2354
lfingers 7.12502
lthumb 17.8784 41.4336
rfemur -31.1198 -0.759911 20.4232
rtibia 18.345
rfoot -15.1169 -6.16489
rtoes -18.4444
lfemur 14.5468 -3.65517 -22.5036
ltibia 5.08889e-014
lfoot -19.9924 10.5732
ltoes -16.0684
331
root 10.6507 17.3512 10.4441 -175.616 85.0455 -177.438
lowerback -1.30326 -3.31598 2.1021
upperback 0.470666 -4.45172 -0.677882
thorax 0.997716 -2.2093 -1.95574
lowerneck -3.80911 2.95601 -4.10704
upperneck -2.80605 4.16403 2.7918
head -0.379965 2.13635 1.58353
rclavicle -1.98785e-016 5.1684e-015
rhumerus -36.3379 -18.5171 -82.5807
rradius 25.2725
rwrist 34.8868
rhand 12.0718 -19.4644
rfingers 7.12502
rthumb 37.0886 -45.5059
lclavicle -1.98785e-016 5.1684e-015
lhumerus -24.3815 6.61819 87.653
lradius 39.7861
lwrist -7.07823
lhand -8.16061 12.5058
lfingers 7.12502
lthumb 17.7543 41.7153
rfemur -30.6602 -1.28944 20.8801
rtibia 18.0063
rfoot -14.4684 -6.16131
rtoes -17.833
lfemur 15.3143 -4.0014 -22.353
ltibia -5.40694e-014
lfoot -20.0808 10.5863
ltoes -16.6271
332
root 10.8421 17.3247 10.4446 -175.795 84.8219 -177.567
lowerback -1.13789 -3.29997 2.3148
upperback 0.412285 -4.43014 -0.659113
thorax 0.831854 -2.20021 -2.04085
lowerneck -3.7257 2.83978 -4.32314
upperneck -2.79176 4.01369 2.89582
head -0.390885 2.06222 1.65299
rclavicle 4.80003e-014 7.25564e-015
rhumerus -36.3566 -18.6516 -82.2593
rradius 24.8847
rwrist 34.8391
rhand 12.368 -19.4067
rfingers 7.12502
rthumb 37.3687 -45.3749
lclavicle 4.80003e-014 7.25564e-015
lhumerus -24.2827 6.72352 87.7517
lradius 39.5624
lwrist -8.02932
lhand -7.6804 11.9202
lfingers 7.12502
lthumb 18.2163 41.0872
rfemur -30.0687 -1.7342 21.1933
rtibia 17.7334
rfoot -13.4366 -6.01718
rtoes -18.1693
lfemur 16.0682 -4.21376 -22.3352
ltibia -3.18055e-014
lfoot -20.1268 10.5279
ltoes -17.1178
333
root 11.0338 17.2968 10.4472 -174.068 84.5103 -175.867
lowerback -1.03656 -3.34713 2.63301
upperback 0.312557 -4.4951 -0.550744
thorax 0.653937 -2.235 -2.09624
lowerneck -3.66895 2.77196 -4.64547
upperneck -2.74157 3.93254 3.07056
head -0.392298 2.02345 1.76547
rclavicle 2.61743e-014 9.93923e-016
rhumerus -36.5457 -19.2302 -81.7959
rradius 24.7296
rwrist 35.0648
rhand 11.8816 -19.4869
rfingers 7.12502
rthumb 36.9087 -45.5749
lclavicle 2.61743e-014 9.93923e-016
lhumerus -24.3654 6.4137 88.0663
lradius 39.551
lwrist -7.56199
lhand -8.26197 12.1915
lfingers 7.12502
lthumb 17.6568 41.4098
rfemur -29.4165 -2.24493 21.7214
rtibia 17.5906
rfoot -12.312 -5.65591
rtoes -18.7459
lfemur 16.7084 -4.50578 -22.1123
ltibia 2.22639e-014
lfoot -19.9562 10.4659
ltoes -17.7575
